<svg width="128" height="128" viewBox="0 0 128 128" fill="none" xmlns="http://www.w3.org/2000/svg">
<path fill-rule="evenodd" clip-rule="evenodd" d="M64 119C94.3757 119 119 94.3757 119 64C119 33.6243 94.3757 9 64 9C33.6243 9 9 33.6243 9 64C9 94.3757 33.6243 119 64 119ZM30.7573 90.02L24 78.3302H73.516L82.8257 94.4762H37.9696C34.9247 94.4762 32.1372 92.7573 30.7573 90.02ZM102.708 74.0292C103.515 75.2927 103.998 76.804 103.998 78.4078C103.998 80.2443 103.648 81.1826 102.398 83.3069L95.9903 94.3961L55.3915 24H69.2836C72.2785 24 75.0259 25.6564 76.4184 28.3011L102.708 74.0292ZM48.7642 35.417L66.9012 66.8632H30.6148L48.7642 35.417Z" fill="white"/>
</svg>
