<svg width="128" height="128" viewBox="0 0 128 128" fill="none" xmlns="http://www.w3.org/2000/svg">
<path fill-rule="evenodd" clip-rule="evenodd" d="M64 119C94.3757 119 119 94.3757 119 64C119 33.6243 94.3757 9 64 9C33.6243 9 9 33.6243 9 64C9 94.3757 33.6243 119 64 119ZM77.0005 96.9482C76.675 96.8669 76.3088 96.8262 75.9019 96.8262H70.897V47.7539H49.5347V50.8057H57.4692V90.2344C57.4692 93.7337 56.1265 95.8089 53.4409 96.46C52.4644 96.7041 51.1623 96.8262 49.5347 96.8262V100H78.8315C78.8315 98.1283 78.2212 97.111 77.0005 96.9482ZM71.1411 35.0586C71.7922 33.8379 72.1177 32.5358 72.1177 31.1523C72.1177 27.8158 70.6121 25.3337 67.6011 23.7061C66.3804 23.055 65.119 22.7295 63.8169 22.7295C60.4803 22.7295 58.0389 24.235 56.4927 27.2461C55.8416 28.5482 55.5161 29.8503 55.5161 31.1523C55.5161 34.5703 57.0216 37.0117 60.0327 38.4766C61.2534 39.0462 62.5148 39.3311 63.8169 39.3311C67.1535 39.3311 69.5949 37.9069 71.1411 35.0586Z" fill="white"/>
</svg>
