<svg width="128" height="128" viewBox="0 0 128 128" fill="none" xmlns="http://www.w3.org/2000/svg">
<path fill-rule="evenodd" clip-rule="evenodd" d="M64 119C94.3757 119 119 94.3757 119 64C119 33.6243 94.3757 9 64 9C33.6243 9 9 33.6243 9 64C9 94.3757 33.6243 119 64 119ZM46.7758 45.8256C39.089 45.8256 32.5409 59.4911 32.5409 72.5872C32.5409 78.8505 35.1032 82.2669 38.8043 81.9822C42.5053 81.9822 44.7829 79.7046 51.6157 68.8861C51.6157 68.8861 54.7473 64.0463 59.8719 56.0747C54.4626 48.3879 51.0463 45.8256 46.7758 45.8256ZM72.3986 59.7758L77.2384 67.7473C77.5263 68.2124 77.8052 68.6632 78.0755 69.1003C84.7552 79.9001 86.2191 82.2669 90.0498 82.2669C94.0356 82.2669 96.0285 78.8505 96.0285 72.8719C96.0285 56.9288 89.1957 44.1174 80.6548 44.1174C76.3843 44.1174 72.968 47.5338 68.6975 54.0819C68.9738 54.4963 69.2669 54.9275 69.5686 55.3715C70.5103 56.7571 71.5361 58.2665 72.3986 59.7758ZM47.0605 37C53.3238 37 58.7331 40.1317 64.9964 48.3879C69.5516 42.1246 74.6762 37 81.2242 37C93.4662 37 103.715 52.9431 104 72.3025C104 83.9751 99.1601 91.3772 90.3345 91.3772C82.6477 91.3772 78.3772 87.1068 70.6904 74.0107L66.7046 67.1779C65.8505 65.4698 64.9964 64.0463 64.1423 62.6228C61.5801 66.8932 58.1637 73.1566 58.1637 73.1566C49.6228 87.9609 45.0676 91.0925 38.5196 91.0925C29.4093 91.0925 24 83.9751 24 72.5872C24 54.3665 33.9644 37 47.0605 37Z" fill="white"/>
</svg>
