<svg width="100" height="100" viewBox="0 0 100 100" fill="none" xmlns="http://www.w3.org/2000/svg">
<g clip-path="url(#clip0_9_16)">
<path fill-rule="evenodd" clip-rule="evenodd" d="M50 100C77.6142 100 100 77.6142 100 50C100 22.3858 77.6142 0 50 0C22.3858 0 0 22.3858 0 50C0 77.6142 22.3858 100 50 100ZM19.7794 73.6545L13.6364 63.0275H58.6509L67.1142 77.7056H26.336C23.5679 77.7056 21.0339 76.143 19.7794 73.6545ZM85.1887 59.1174C85.9227 60.2661 86.3614 61.64 86.3614 63.098C86.3614 64.7676 86.0432 65.6206 84.9069 67.5517L79.0821 77.6328L42.1741 13.6364H54.8033C57.5259 13.6364 60.0236 15.1422 61.2894 17.5464L85.1887 59.1174ZM36.1493 24.0155L52.6374 52.6029H19.6498L36.1493 24.0155Z" fill="white"/>
</g>
<defs>
<clipPath id="clip0_9_16">
<rect width="100" height="100" fill="white"/>
</clipPath>
</defs>
</svg>
