<svg width="128" height="128" viewBox="0 0 128 128" fill="none" xmlns="http://www.w3.org/2000/svg">
<path fill-rule="evenodd" clip-rule="evenodd" d="M64 119C94.3757 119 119 94.3757 119 64C119 33.6243 94.3757 9 64 9C33.6243 9 9 33.6243 9 64C9 94.3757 33.6243 119 64 119ZM70.1123 67.2471C70.1123 71.3524 73.2798 74.7107 77.3084 74.9767L77.3058 74.974H77.3271C81.3318 74.743 84.5072 71.3981 84.5072 67.3063C84.5072 67.1521 84.5022 66.998 84.4946 66.8661C84.5048 66.7057 84.5099 66.5451 84.5099 66.382C84.5099 62.2929 81.3318 58.9533 77.3084 58.733H77.2871C73.2824 58.9775 70.1096 62.3251 70.1096 66.4223C70.1096 66.5719 70.1147 66.7188 70.1224 66.8458C70.1149 66.9796 70.1123 67.1133 70.1123 67.2471ZM70.1224 66.8458C70.1226 66.8488 70.1228 66.8519 70.123 66.8549V66.8361C70.1228 66.8393 70.1226 66.8425 70.1224 66.8458ZM84.4946 66.8661C84.4944 66.8624 84.4941 66.8586 84.4939 66.8549V66.8764C84.4941 66.873 84.4944 66.8696 84.4946 66.8661ZM43.5407 67.2471C43.5407 71.3524 46.7082 74.7107 50.7369 74.9767H50.7582C54.7629 74.7322 57.9357 71.3846 57.9357 67.2874C57.9357 67.1386 57.9306 66.9924 57.923 66.8659C57.9332 66.7055 57.9383 66.5451 57.9383 66.382C57.9383 62.2929 54.7602 58.9533 50.7369 58.733H50.7155C46.7109 58.9775 43.5381 62.3251 43.5381 66.4223C43.5381 66.5719 43.5432 66.7188 43.5508 66.8458C43.5433 66.9796 43.5407 67.1133 43.5407 67.2471ZM43.5508 66.8458C43.551 66.8488 43.5512 66.8519 43.5514 66.8549V66.8361C43.5512 66.8393 43.551 66.8425 43.5508 66.8458ZM57.923 66.8659C57.9228 66.8622 57.9226 66.8585 57.9223 66.8549V66.8764C57.9226 66.8729 57.9228 66.8694 57.923 66.8659ZM75.8314 33.1478C81.5477 34.1714 87.0082 35.9392 91.7087 38.1745L91.7114 38.1665C91.7394 38.1788 91.7651 38.1981 91.7855 38.2221L91.674 38.0536C99.4354 49.0798 104 62.5535 104 77.1019C104 79.5763 103.869 82.0212 103.637 84.1276C103.629 84.2028 103.592 84.27 103.533 84.3129L103.707 84.1867C97.8197 88.6197 91.1755 92.0855 83.5367 94.482C83.5127 94.4874 83.4861 94.4928 83.4594 94.4928C83.3768 94.4928 83.2994 94.4498 83.2541 94.3853L83.3608 94.5385C81.8624 92.4617 80.5079 90.2747 79.1721 87.6955C79.1535 87.6606 79.1428 87.6203 79.1428 87.5773C79.1428 87.4698 79.2121 87.3758 79.3081 87.3382L79.5881 87.2414C81.729 86.4112 83.7847 85.4064 85.5471 84.3452C85.6191 84.2995 85.6697 84.2189 85.6697 84.1249C85.6697 84.0416 85.6297 83.9664 85.5684 83.918C85.1445 83.6037 84.7259 83.2705 84.3259 82.9374C84.2833 82.9024 84.2273 82.8809 84.1686 82.8809C84.1572 82.8809 84.1462 82.8816 84.1356 82.8829C78.0197 85.7935 71.1808 87.4214 63.9693 87.4214C56.6746 87.4214 49.7637 85.7557 43.8767 82.9051H43.8794C43.85 82.8917 43.8154 82.8836 43.778 82.8836C43.7194 82.8836 43.6634 82.9051 43.6207 82.9401C43.2208 83.2732 42.7995 83.601 42.3809 83.918C42.3196 83.9637 42.2796 84.0389 42.2796 84.1222C42.2796 84.2162 42.3303 84.2995 42.4076 84.3452L42.2023 84.2323C44.1593 85.3876 46.215 86.3951 48.6466 87.3408H48.6492C48.7452 87.3784 48.8145 87.4698 48.8145 87.5799C48.8145 87.6229 48.8039 87.6632 48.7879 87.6955L48.6626 87.9641C47.4868 90.2639 46.1296 92.4563 44.7032 94.3907C44.6579 94.4525 44.5832 94.4928 44.4979 94.4928C44.4713 94.4928 44.4446 94.4901 44.4233 94.482L43.954 94.3531C36.7952 92.0775 30.1616 88.6116 24.4559 84.3103C24.3999 84.2646 24.3599 84.2001 24.3519 84.1222L24.3759 84.4177C24.128 82.0481 24 79.6435 24 77.2067C24 62.626 28.5539 49.1174 36.1633 38.2605C36.1865 38.2215 36.2222 38.1901 36.2655 38.1711L35.8674 38.3411C40.9705 35.9312 46.4309 34.166 52.5446 33.0833C52.5579 33.0806 52.5739 33.0806 52.5872 33.0806C52.6805 33.0806 52.7632 33.129 52.8085 33.2069L52.6992 33C53.458 34.3308 54.1451 35.7044 54.8639 37.3938C57.8459 36.942 60.8991 36.7076 64.0067 36.7076C67.2328 36.7076 70.4003 36.9602 73.1465 37.4035L73.2611 37.1053C73.8717 35.6921 74.5489 34.3138 75.1728 33.2096C75.2155 33.1343 75.2954 33.0833 75.3888 33.0833C75.4048 33.0833 75.4208 33.086 75.4341 33.0887L75.8314 33.1478ZM84.062 82.9051C84.0697 82.9012 84.0777 82.8978 84.0858 82.8948L84.062 82.9051Z" fill="white"/>
</svg>
