<svg width="100" height="100" viewBox="0 0 100 100" fill="none" xmlns="http://www.w3.org/2000/svg">
<g clip-path="url(#clip0_9_10)">
<path fill-rule="evenodd" clip-rule="evenodd" d="M50 100C77.6142 100 100 77.6142 100 50C100 22.3858 77.6142 0 50 0C22.3858 0 0 22.3858 0 50C0 77.6142 22.3858 100 50 100ZM34.3416 33.4778C27.3536 33.4778 21.4008 45.901 21.4008 57.8065C21.4008 63.5005 23.7302 66.6063 27.0948 66.3475C30.4594 66.3475 32.5299 64.2769 38.7415 54.4419C38.7415 54.4419 41.5885 50.0421 46.2472 42.7952C41.3297 35.8072 38.2239 33.4778 34.3416 33.4778ZM57.6351 46.1598L62.0349 53.4067C62.2966 53.8294 62.5501 54.2393 62.7959 54.6365C68.8683 64.4546 70.1992 66.6063 73.6817 66.6063C77.3051 66.6063 79.1168 63.5005 79.1168 58.0653C79.1168 43.5717 72.9052 31.9249 65.1407 31.9249C61.2585 31.9249 58.1527 35.0307 54.2705 40.9835C54.5216 41.3603 54.7881 41.7523 55.0623 42.1558C55.9184 43.4155 56.851 44.7877 57.6351 46.1598ZM34.6005 25.4545C40.2944 25.4545 45.2119 28.3015 50.9059 35.8072C55.0469 30.1132 59.7056 25.4545 65.6584 25.4545C76.7874 25.4545 86.1048 39.9482 86.3636 57.5477C86.3636 68.1592 81.9638 74.8884 73.9405 74.8884C66.9524 74.8884 63.0702 71.0061 56.0822 59.1006L52.4588 52.889C51.6823 51.3361 50.9059 50.0421 50.1294 48.748C47.8001 52.6302 44.6943 58.3242 44.6943 58.3242C36.9298 71.7826 32.7887 74.6296 26.836 74.6296C18.5539 74.6296 13.6364 68.1592 13.6364 57.8065C13.6364 41.2423 22.6949 25.4545 34.6005 25.4545Z" fill="white"/>
</g>
<defs>
<clipPath id="clip0_9_10">
<rect width="100" height="100" fill="white"/>
</clipPath>
</defs>
</svg>
