<svg width="100" height="100" viewBox="0 0 100 100" fill="none" xmlns="http://www.w3.org/2000/svg">
<g clip-path="url(#clip0_9_25)">
<path fill-rule="evenodd" clip-rule="evenodd" d="M50 100C77.6142 100 100 77.6142 100 50C100 22.3858 77.6142 0 50 0C22.3858 0 0 22.3858 0 50C0 77.6142 22.3858 100 50 100ZM42.6852 38.9975V59.4041C44.0326 58.7134 45.3637 58.0334 46.6732 57.3644C52.4042 54.4366 57.721 51.7204 62.1762 49.2496C60.3122 48.2523 58.5292 47.2754 56.7681 46.3105C52.2594 43.8402 47.8947 41.4488 42.6852 38.9975ZM77.4112 25.496C79.6787 25.9203 81.8086 27.2019 83.0582 28.8483C87.3976 35.6805 87.767 66.4897 82.3482 71.9076C80.9826 73.2421 79.2513 74.152 77.2953 74.4928C56.0656 76.0921 27.7944 75.4575 22.3068 74.3224C20.3472 73.9271 18.6411 73.0457 17.3951 71.7656C16.428 70.7973 15.66 69.3222 15.066 67.2769C13.6533 62.5517 11.8169 33.3806 17.6776 27.941C19.0685 26.6608 20.6877 25.8369 22.506 25.496C29.1672 24.2268 70.7464 24.2304 77.4112 25.496Z" fill="white"/>
</g>
<defs>
<clipPath id="clip0_9_25">
<rect width="100" height="100" fill="white"/>
</clipPath>
</defs>
</svg>
