<svg width="100" height="100" viewBox="0 0 100 100" fill="none" xmlns="http://www.w3.org/2000/svg">
<g clip-path="url(#clip0_9_2)">
<path fill-rule="evenodd" clip-rule="evenodd" d="M50 100C77.6142 100 100 77.6142 100 50C100 22.3858 77.6142 0 50 0C22.3858 0 0 22.3858 0 50C0 77.6142 22.3858 100 50 100ZM55.5566 52.9519C55.5566 56.684 58.4362 59.737 62.0986 59.9788L62.0962 59.9764H62.1156C65.7562 59.7664 68.643 56.7255 68.643 53.0057C68.643 52.8656 68.6384 52.7255 68.6314 52.6056C68.6407 52.4597 68.6454 52.3138 68.6454 52.1655C68.6454 48.4481 65.7562 45.4121 62.0986 45.2119H62.0792C58.4386 45.4341 55.5542 48.4774 55.5542 52.2021C55.5542 52.3381 55.5589 52.4717 55.5658 52.5871C55.559 52.7087 55.5566 52.8303 55.5566 52.9519ZM55.5658 52.5871C55.566 52.5898 55.5662 52.5926 55.5663 52.5954V52.5783C55.5662 52.5812 55.566 52.5841 55.5658 52.5871ZM68.6314 52.6056C68.6312 52.6022 68.631 52.5987 68.6308 52.5954V52.6149C68.631 52.6118 68.6312 52.6087 68.6314 52.6056ZM31.4007 52.9519C31.4007 56.684 34.2802 59.737 37.9426 59.9788H37.962C41.6026 59.7566 44.487 56.7133 44.487 52.9886C44.487 52.8533 44.4824 52.7203 44.4755 52.6054C44.4848 52.4596 44.4894 52.3137 44.4894 52.1655C44.4894 48.4481 41.6002 45.4121 37.9426 45.2119H37.9232C34.2826 45.4341 31.3983 48.4774 31.3983 52.2021C31.3983 52.3381 31.4029 52.4717 31.4099 52.5871C31.403 52.7087 31.4007 52.8303 31.4007 52.9519ZM31.4099 52.5871C31.41 52.5898 31.4102 52.5926 31.4104 52.5954V52.5783C31.4102 52.5812 31.41 52.5841 31.4099 52.5871ZM44.4755 52.6054C44.4753 52.602 44.4751 52.5987 44.4749 52.5954V52.6149C44.4751 52.6117 44.4753 52.6085 44.4755 52.6054ZM60.7558 21.9525C65.9525 22.8831 70.9165 24.4902 75.1897 26.5223L75.1922 26.515C75.2176 26.5262 75.241 26.5438 75.2596 26.5656L75.1582 26.4124C82.214 36.4362 86.3636 48.685 86.3636 61.9108C86.3636 64.1603 86.2449 66.3829 86.034 68.2978C86.0267 68.3662 85.9928 68.4272 85.9395 68.4663L86.097 68.3515C80.7452 72.3815 74.705 75.5323 67.7607 77.7109C67.7389 77.7158 67.7146 77.7207 67.6904 77.7207C67.6152 77.7207 67.545 77.6816 67.5038 77.623L67.6007 77.7622C66.2385 75.8742 65.0072 73.8861 63.7929 71.5413C63.7759 71.5096 63.7662 71.473 63.7662 71.4339C63.7662 71.3362 63.8292 71.2507 63.9165 71.2165L64.171 71.1286C66.1173 70.3739 67.9861 69.4604 69.5882 68.4956C69.6537 68.4541 69.6997 68.3808 69.6997 68.2953C69.6997 68.2196 69.6634 68.1512 69.6076 68.1073C69.2223 67.8215 68.8417 67.5186 68.4781 67.2158C68.4394 67.184 68.3885 67.1645 68.3351 67.1645C68.3247 67.1645 68.3148 67.1651 68.3051 67.1663C62.7452 69.8123 56.528 71.2922 49.9721 71.2922C43.3405 71.2922 37.0579 69.7779 31.7061 67.1865H31.7085C31.6818 67.1743 31.6503 67.1669 31.6164 67.1669C31.5631 67.1669 31.5122 67.1865 31.4734 67.2182C31.1098 67.5211 30.7268 67.8191 30.3463 68.1073C30.2906 68.1488 30.2542 68.2172 30.2542 68.2929C30.2542 68.3784 30.3003 68.4541 30.3705 68.4956L30.1839 68.393C31.963 69.4433 33.8318 70.3592 36.0423 71.2189H36.0448C36.132 71.2531 36.195 71.3362 36.195 71.4363C36.195 71.4754 36.1853 71.512 36.1708 71.5413L36.0569 71.7856C34.988 73.8763 33.7542 75.8693 32.4575 77.6279C32.4163 77.6841 32.3484 77.7207 32.2708 77.7207C32.2466 77.7207 32.2224 77.7183 32.203 77.7109L31.7764 77.5937C25.2684 75.525 19.2379 72.3742 14.0508 68.4639C13.9999 68.4223 13.9636 68.3637 13.9563 68.2929L13.9781 68.5616C13.7527 66.4073 13.6364 64.2214 13.6364 62.0061C13.6364 48.751 17.7763 36.4704 24.6939 26.6005C24.715 26.565 24.7475 26.5365 24.7868 26.5192L24.4249 26.6738C29.0641 24.4829 34.0281 22.8782 39.586 21.8939C39.5981 21.8915 39.6126 21.8915 39.6248 21.8915C39.7096 21.8915 39.7847 21.9354 39.8259 22.0063L39.7266 21.8182C40.4164 23.028 41.041 24.2767 41.6944 25.8125C44.4054 25.4018 47.181 25.1888 50.0061 25.1888C52.9389 25.1888 55.8184 25.4183 58.315 25.8213L58.4192 25.5502C58.9743 24.2655 59.5899 23.0125 60.1571 22.0087C60.1959 21.9403 60.2686 21.8939 60.3534 21.8939C60.368 21.8939 60.3825 21.8963 60.3946 21.8988L60.7558 21.9525ZM68.2382 67.1865C68.2452 67.1829 68.2524 67.1798 68.2598 67.1771L68.2382 67.1865Z" fill="white"/>
</g>
<defs>
<clipPath id="clip0_9_2">
<rect width="100" height="100" fill="white"/>
</clipPath>
</defs>
</svg>
