<svg width="512" height="512" viewBox="0 0 512 512" fill="none" xmlns="http://www.w3.org/2000/svg">
<path d="M137.955 88.8172C116.008 79.7284 78.179 57.0989 27.9493 50.0579C25.2385 49.6779 22.4681 50.41 20.8213 52.5965C8.34246 69.1639 -13.1857 134.997 10.9243 233.946C12.7658 241.503 13.0485 249.422 11.983 257.127C-10.4818 419.586 139.722 505.391 258.366 505.391C338.482 505.391 466.668 466.625 504.4 337.922L504.571 337.338C509.917 319.124 521.844 278.483 495.9 212.411C490.873 199.608 489.818 185.258 490.313 171.513C491.82 129.612 479.601 48.2345 448.109 9.34846C445.409 6.01516 440.797 5.11499 436.896 6.89806C401.607 23.0271 366.668 47.3895 337.757 68.0307C330.341 73.3248 321.001 74.9953 312.07 73.1908C266.128 63.9081 221.761 67.0818 155.549 88.9115C149.788 90.8109 143.559 91.1383 137.955 88.8172Z" fill="url(#paint0_linear_7_4)"/>
<path fill-rule="evenodd" clip-rule="evenodd" d="M508.789 321.05C505.913 312.173 497.388 297.829 488.377 288.819C479.073 279.515 451.162 257.289 420.149 243.334C391.721 230.541 373.63 231.962 329.695 237.131C325.788 234.12 322.237 231.273 318.913 228.607C295.417 209.765 283.233 199.995 236.14 205.601C195.824 210.401 178.941 232.177 166.879 265.559C127.596 263.492 124.495 264.009 101.235 275.38C87.9379 281.881 55.7497 310.011 42.8277 325.517C41.328 327.317 39.9529 328.81 38.6422 330.233C33.4027 335.922 29.1934 340.493 22.1786 359.045C58.5251 455.246 167.668 505.391 258.366 505.391C338.482 505.391 466.668 466.625 504.4 337.922L504.571 337.338C505.809 333.122 507.398 327.705 508.789 321.05Z" fill="url(#paint1_linear_7_4)"/>
<path d="M238.208 209.737C208.229 214.021 189.115 224.895 193.756 237.131C216.499 297.089 290.891 281.583 289.379 220.591C289.104 209.496 268.187 205.454 238.208 209.737Z" fill="black"/>
<path d="M116.224 107.911C75.9079 139.441 67.6379 149.262 24.2201 213.355C13.3656 143.576 16.7379 74.3909 31.9733 67.0779C44.8952 60.8754 86.2455 83.6181 116.224 107.911Z" fill="white"/>
<path d="M473.387 164.768C449.094 143.576 412.913 102.743 362.775 82.5843C387.069 55.7066 417.565 23.3759 436.689 26.2445C457.364 29.3458 473.387 119.8 473.387 164.768Z" fill="#DEDEDE"/>
<circle cx="374.664" cy="195.264" r="35.6646" fill="black"/>
<circle cx="121.393" cy="226.277" r="35.6646" fill="black"/>
<ellipse cx="310.606" cy="132.351" rx="30.6157" ry="21.6429" transform="rotate(-15 310.606 132.351)" fill="#F3F3F3"/>
<ellipse cx="159.242" cy="150.546" rx="30.769" ry="21.9416" transform="rotate(3.94443 159.242 150.546)" fill="white"/>
<path d="M293.514 339.473C301.956 336.027 315.223 328.102 323.493 318.798" stroke="black" stroke-width="15" stroke-linecap="round"/>
<defs>
<linearGradient id="paint0_linear_7_4" x1="-0.0732155" y1="169.42" x2="511.636" y2="307.943" gradientUnits="userSpaceOnUse">
<stop stop-color="#FBAF5E"/>
<stop offset="1" stop-color="#BF8445"/>
</linearGradient>
<linearGradient id="paint1_linear_7_4" x1="22.6694" y1="354.979" x2="265.484" y2="505.391" gradientUnits="userSpaceOnUse">
<stop stop-color="#FAFAFA"/>
<stop offset="1" stop-color="#C2C2C2"/>
</linearGradient>
</defs>
</svg>
