<svg width="512" height="512" viewBox="0 0 512 512" fill="none" xmlns="http://www.w3.org/2000/svg">
<path d="M144.521 93.5294C123.291 84.7374 86.697 62.8468 38.1074 56.0358C35.4852 55.6682 32.8053 56.3764 31.2122 58.4914C19.1409 74.5178 -1.68432 138.201 21.6384 233.919C23.4198 241.229 23.6933 248.889 22.6626 256.343C0.931326 413.497 146.231 496.5 261 496.5C338.5 496.5 462.5 459 499 334.5L499.166 333.935C504.336 316.315 515.874 277.002 490.777 213.087C485.914 200.703 484.894 186.821 485.373 173.525C486.83 132.992 475.011 54.2719 444.547 16.6557C441.936 13.4312 437.474 12.5604 433.7 14.2853C399.564 29.8877 365.766 53.4545 337.798 73.4217C330.625 78.5429 321.59 80.1588 312.951 78.4133C268.508 69.4337 225.59 72.5038 161.54 93.6206C155.967 95.458 149.942 95.7747 144.521 93.5294Z" fill="url(#paint0_linear_7_4)"/>
<path fill-rule="evenodd" clip-rule="evenodd" d="M503.246 318.179C500.464 309.591 492.216 295.716 483.5 287C474.5 278 447.5 256.5 417.5 243C390 230.625 372.5 232 330 237C326.22 234.087 322.785 231.333 319.57 228.755C296.841 210.528 285.055 201.077 239.5 206.5C200.5 211.143 184.169 232.208 172.5 264.5C134.5 262.5 131.5 263 109 274C96.1371 280.289 65 307.5 52.5 322.5C51.0493 324.241 49.719 325.685 48.4511 327.062C43.3827 332.566 39.3109 336.987 32.5251 354.933C67.6848 447.993 173.263 496.5 261 496.5C338.5 496.5 462.5 459 499 334.5L499.166 333.935C500.362 329.857 501.9 324.617 503.246 318.179Z" fill="url(#paint1_linear_7_4)"/>
<path d="M241.5 210.501C212.5 214.644 194.01 225.164 198.5 237C220.5 295 292.463 280 291 221C290.734 210.268 270.5 206.357 241.5 210.501Z" fill="black"/>
<path d="M123.5 112C84.5 142.5 76.5 152 34.5 214C24 146.5 27.2621 79.5742 42 72.5C54.5 66.5 94.5 88.5 123.5 112Z" fill="white"/>
<path d="M469 167C445.5 146.5 410.5 107 362 87.5C385.5 61.5 415 30.225 433.5 33C453.5 36 469 123.5 469 167Z" fill="#DEDEDE"/>
<circle cx="373.5" cy="196.5" r="34.5" fill="black"/>
<circle cx="128.5" cy="226.5" r="34.5" fill="black"/>
<ellipse cx="311.534" cy="135.641" rx="29.6159" ry="20.9362" transform="rotate(-15 311.534 135.641)" fill="#F3F3F3"/>
<ellipse cx="165.113" cy="153.242" rx="29.7642" ry="21.2251" transform="rotate(3.94443 165.113 153.242)" fill="white"/>
<path d="M295 336C303.167 332.667 316 325 324 316" stroke="black" stroke-width="15" stroke-linecap="round"/>
<defs>
<linearGradient id="paint0_linear_7_4" x1="11" y1="171.5" x2="506" y2="305.5" gradientUnits="userSpaceOnUse">
<stop stop-color="#FBAF5E"/>
<stop offset="1" stop-color="#BF8445"/>
</linearGradient>
<linearGradient id="paint1_linear_7_4" x1="33" y1="351" x2="267.886" y2="496.5" gradientUnits="userSpaceOnUse">
<stop stop-color="#FAFAFA"/>
<stop offset="1" stop-color="#C2C2C2"/>
</linearGradient>
</defs>
</svg>
