<svg width="100" height="100" viewBox="0 0 100 100" fill="none" xmlns="http://www.w3.org/2000/svg">
<g clip-path="url(#clip0_1_2)">
<path fill-rule="evenodd" clip-rule="evenodd" d="M50 100C77.6142 100 100 77.6142 100 50C100 22.3858 77.6142 0 50 0C22.3858 0 0 22.3858 0 50C0 77.6142 22.3858 100 50 100ZM56.9863 17.8C56.9863 16.1431 55.6432 14.8 53.9863 14.8H45.9863C44.3295 14.8 42.9863 16.1431 42.9863 17.8V25.1C42.9863 26.7568 44.3295 28.1 45.9863 28.1H53.9863C55.6432 28.1 56.9863 26.7568 56.9863 25.1V17.8ZM56.4863 39.2C56.4863 37.5431 55.1432 36.2 53.4863 36.2H46.4863C44.8295 36.2 43.4863 37.5431 43.4863 39.2V83C43.4863 84.6569 44.8295 86 46.4863 86H53.4863C55.1432 86 56.4863 84.6569 56.4863 83V39.2Z" fill="white"/>
</g>
<defs>
<clipPath id="clip0_1_2">
<rect width="100" height="100" fill="white"/>
</clipPath>
</defs>
</svg>
