<svg width="128" height="128" viewBox="0 0 128 128" fill="none" xmlns="http://www.w3.org/2000/svg">
<path d="M71.7259 49.8066C71.7259 44.0699 76.3853 39.4188 82.1288 39.4188C87.8722 39.4188 92.5317 44.0699 92.5317 49.803C92.5317 55.5397 87.8759 60.1871 82.1288 60.1871C82.1288 60.1871 82.1288 60.1871 82.1251 60.1871C76.3817 60.1871 71.7259 55.5397 71.7259 49.8066C71.7259 49.8066 71.7222 49.8066 71.7222 49.803L71.7259 49.8066ZM95.938 49.8286C95.938 42.1955 89.7389 36.0076 82.092 36.0076C74.4451 36.0076 68.246 42.1955 68.246 49.8286C68.246 57.4618 74.4451 63.6497 82.092 63.6497C89.7353 63.6387 95.927 57.4544 95.938 49.8286ZM43.5231 92.4693L36.7581 89.6742C38.6837 93.6284 42.678 96.306 47.297 96.306C52.1365 96.306 56.2925 93.3679 58.0636 89.1791L58.093 89.102C58.6626 87.7742 58.997 86.2263 58.997 84.6051C58.997 78.1604 53.7643 72.9371 47.308 72.9371C45.8198 72.9371 44.3977 73.2159 43.0895 73.7184L43.1704 73.6927L50.1632 76.5794C53.294 77.9146 55.451 80.9664 55.451 84.517C55.451 89.2708 51.5889 93.1258 46.8266 93.1258C45.636 93.1258 44.5043 92.8838 43.4717 92.4509L43.5268 92.4729L43.5231 92.4693ZM63.9063 9C35.0347 9.00367 11.3554 31.1768 9.0147 59.3911L9 59.5892L38.5367 71.7744C40.9913 70.0797 44.0302 69.071 47.308 69.071C47.3117 69.071 47.3154 69.071 47.3154 69.071C47.6056 69.071 47.8886 69.0894 48.1789 69.1004L61.3157 50.1147V49.8433C61.3267 38.3991 70.6235 29.1264 82.0884 29.1264C93.5606 29.1264 102.861 38.4101 102.861 49.8617C102.861 61.3132 93.5606 70.5969 82.0884 70.5969H81.607L62.8884 83.9411C62.8884 84.1796 62.9068 84.4217 62.9068 84.6711C62.9068 84.6748 62.9068 84.6784 62.9068 84.6821C62.9068 93.2726 55.9287 100.238 47.3227 100.238C39.8007 100.238 33.5208 94.9158 32.062 87.8402L32.0436 87.7412L10.8961 79.0003C17.6611 102.274 38.827 119 63.9026 119C94.3322 119 119 94.3766 119 64.0018C119 33.627 94.3322 9.00367 63.9026 9.00367L63.9063 9Z" fill="white"/>
</svg>
