<svg width="100" height="100" viewBox="0 0 100 100" fill="none" xmlns="http://www.w3.org/2000/svg">
<g clip-path="url(#clip0_1_6)">
<path d="M57.0236 37.0969C57.0236 31.8817 61.2594 27.6535 66.4807 27.6535C71.702 27.6535 75.9379 31.8817 75.9379 37.0936C75.9379 42.3088 71.7054 46.5337 66.4807 46.5337C66.4807 46.5337 66.4807 46.5337 66.4774 46.5337C61.2561 46.5337 57.0236 42.3088 57.0236 37.0969C57.0236 37.0969 57.0202 37.0969 57.0202 37.0936L57.0236 37.0969ZM79.0346 37.1169C79.0346 30.1777 73.399 24.5523 66.4473 24.5523C59.4956 24.5523 53.86 30.1777 53.86 37.1169C53.86 44.0562 59.4956 49.6815 66.4473 49.6815C73.3957 49.6715 79.0246 44.0495 79.0346 37.1169ZM31.3847 75.8812L25.2347 73.3402C26.9851 76.9349 30.6163 79.3691 34.8154 79.3691C39.215 79.3691 42.9932 76.6981 44.6033 72.8901L44.63 72.82C45.1478 71.6129 45.4518 70.2057 45.4518 68.7319C45.4518 62.873 40.6948 58.1246 34.8255 58.1246C33.4725 58.1246 32.1797 58.3781 30.9905 58.8349L31.064 58.8116L37.4211 61.4359C40.2672 62.6496 42.2282 65.424 42.2282 68.6518C42.2282 72.9734 38.7172 76.478 34.3878 76.478C33.3055 76.478 32.2766 76.258 31.3379 75.8645L31.388 75.8845L31.3847 75.8812ZM49.9148 0C23.668 0.00333456 2.14131 20.1607 0.0133625 45.8101L0 45.9902L26.8515 57.0676C29.083 55.527 31.8457 54.61 34.8255 54.61C34.8288 54.61 34.8321 54.61 34.8321 54.61C35.096 54.61 35.3533 54.6267 35.6172 54.6367L47.5597 37.377V37.1303C47.5697 26.7265 56.0214 18.2967 66.444 18.2967C76.8732 18.2967 85.3282 26.7365 85.3282 37.147C85.3282 47.5574 76.8732 55.9972 66.444 55.9972H66.0064L48.9895 68.1283C48.9895 68.3451 49.0062 68.5651 49.0062 68.7919C49.0062 68.7952 49.0062 68.7986 49.0062 68.8019C49.0062 76.6114 42.6624 82.9437 34.8388 82.9437C28.0007 82.9437 22.2916 78.1053 20.9654 71.6729L20.9487 71.5829L1.72373 63.6367C7.87373 84.7944 27.1154 100 49.9115 100C77.5747 100 100 77.6151 100 50.0017C100 22.3882 77.5747 0.00333471 49.9115 0.00333471L49.9148 0Z" fill="white"/>
</g>
<defs>
<clipPath id="clip0_1_6">
<rect width="100" height="100" fill="white"/>
</clipPath>
</defs>
</svg>
