<svg width="128" height="128" viewBox="0 0 128 128" fill="none" xmlns="http://www.w3.org/2000/svg">
<path fill-rule="evenodd" clip-rule="evenodd" d="M64 119C94.3757 119 119 94.3757 119 64C119 33.6243 94.3757 9 64 9C33.6243 9 9 33.6243 9 64C9 94.3757 33.6243 119 64 119ZM55.9538 51.8972V74.3445C57.436 73.5847 58.9003 72.8366 60.3408 72.1007C66.6448 68.8801 72.4932 65.8923 77.3938 63.1745C75.3435 62.0776 73.3821 61.0029 71.4448 59.9415C66.4854 57.2242 61.6842 54.5936 55.9538 51.8972ZM94.1524 37.0456C96.6466 37.5124 98.9894 38.9221 100.364 40.7331C105.137 48.2485 105.544 82.1387 99.583 88.0984C98.0809 89.5664 96.1764 90.5672 94.0248 90.9421C70.6721 92.7013 39.5738 92.0032 33.5374 90.7546C31.3819 90.3198 29.5052 89.3502 28.1346 87.9421C27.0708 86.877 26.226 85.2545 25.5726 83.0046C24.0187 77.8068 21.9986 45.7187 28.4453 39.7351C29.9753 38.3269 31.7564 37.4206 33.7566 37.0456C41.0839 35.6495 86.821 35.6534 94.1524 37.0456Z" fill="white"/>
</svg>
